# Blender v2.79 (sub 0) OBJ File: ''
# www.blender.org
mtllib Cone reconstruction.mtl
o Cone_Cone.001
v -0.000001 -0.000000 -1.000000
v 0.049067 -0.000000 -0.998796
v 0.098016 -0.000000 -0.995185
v 0.146730 -0.000000 -0.989177
v 0.195090 -0.000000 -0.980786
v 0.242979 -0.000000 -0.970032
v 0.290284 -0.000000 -0.956941
v 0.336889 -0.000000 -0.941544
v 0.382683 -0.000000 -0.923880
v 0.427554 -0.000000 -0.903990
v 0.471396 -0.000000 -0.881922
v 0.514102 -0.000000 -0.857729
v 0.555570 -0.000000 -0.831470
v 0.595699 -0.000000 -0.803208
v 0.634393 -0.000000 -0.773011
v 0.671558 -0.000000 -0.740951
v 0.707106 -0.000000 -0.707107
v 0.740950 -0.000000 -0.671559
v 0.773010 -0.000000 -0.634394
v 0.803207 -0.000000 -0.595700
v 0.831469 -0.000000 -0.555571
v 0.857728 -0.000000 -0.514103
v 0.881921 -0.000000 -0.471397
v 0.903989 -0.000000 -0.427555
v 0.923879 -0.000000 -0.382684
v 0.941543 -0.000000 -0.336890
v 0.956940 -0.000000 -0.290285
v 0.970031 -0.000000 -0.242980
v 0.980785 -0.000000 -0.195090
v 0.989176 -0.000000 -0.146731
v 0.995184 -0.000000 -0.098017
v 0.998795 -0.000000 -0.049068
v 0.999999 -0.000000 -0.000000
v 0.998795 -0.000000 0.049068
v 0.995184 -0.000000 0.098017
v 0.989176 -0.000000 0.146731
v 0.980784 -0.000000 0.195090
v 0.970030 -0.000000 0.242980
v 0.956939 -0.000000 0.290285
v 0.941543 -0.000000 0.336890
v 0.923879 -0.000000 0.382684
v 0.903988 -0.000000 0.427555
v 0.881920 -0.000000 0.471397
v 0.857728 -0.000000 0.514103
v 0.831469 -0.000000 0.555570
v 0.803207 -0.000000 0.595699
v 0.773010 -0.000000 0.634393
v 0.740951 -0.000000 0.671558
v 0.707106 -0.000000 0.707106
v 0.671558 -0.000000 0.740950
v 0.634393 -0.000000 0.773010
v 0.595699 -0.000000 0.803207
v 0.555570 -0.000000 0.831469
v 0.514103 -0.000000 0.857728
v 0.471397 -0.000000 0.881920
v 0.427555 -0.000000 0.903988
v 0.382684 -0.000000 0.923879
v 0.336890 -0.000000 0.941543
v 0.290285 -0.000000 0.956940
v 0.242981 -0.000000 0.970030
v 0.195091 -0.000000 0.980785
v 0.146731 -0.000000 0.989176
v 0.098018 -0.000000 0.995184
v 0.049069 -0.000000 0.998795
v 0.000001 -0.000000 1.000000
v -0.049067 -0.000000 0.998795
v -0.098016 -0.000000 0.995184
v -0.146729 -0.000000 0.989176
v -0.195089 -0.000000 0.980785
v -0.242979 -0.000000 0.970031
v -0.290283 -0.000000 0.956941
v -0.336888 -0.000000 0.941544
v -0.382682 -0.000000 0.923880
v -0.427553 -0.000000 0.903990
v -0.471395 -0.000000 0.881922
v -0.514101 -0.000000 0.857730
v -0.555568 -0.000000 0.831471
v -0.595698 -0.000000 0.803209
v -0.634392 -0.000000 0.773012
v -0.671557 -0.000000 0.740953
v -0.707105 -0.000000 0.707109
v -0.740950 -0.000000 0.671561
v -0.773009 -0.000000 0.634395
v -0.803206 -0.000000 0.595701
v -0.831469 -0.000000 0.555572
v -0.857728 -0.000000 0.514105
v -0.881921 -0.000000 0.471399
v -0.903989 -0.000000 0.427557
v -0.923879 -0.000000 0.382685
v 0.000000 0.780000 0.000000
v -0.941544 -0.000000 0.336892
v -0.956940 -0.000000 0.290286
v -0.970031 -0.000000 0.242982
v -0.980786 -0.000000 0.195092
v -0.989177 -0.000000 0.146732
v -0.995185 -0.000000 0.098018
v -0.998796 -0.000000 0.049069
v -1.000001 -0.000000 0.000001
v -0.998796 -0.000000 -0.049067
v -0.995186 -0.000000 -0.098016
v -0.989177 -0.000000 -0.146730
v -0.980786 -0.000000 -0.195090
v -0.970032 -0.000000 -0.242980
v -0.956941 -0.000000 -0.290285
v -0.941545 -0.000000 -0.336890
v -0.923880 -0.000000 -0.382684
v -0.903990 -0.000000 -0.427555
v -0.881922 -0.000000 -0.471397
v -0.857729 -0.000000 -0.514103
v -0.831470 -0.000000 -0.555571
v -0.803208 -0.000000 -0.595700
v -0.773011 -0.000000 -0.634394
v -0.740951 -0.000000 -0.671560
v -0.707107 -0.000000 -0.707108
v -0.671559 -0.000000 -0.740952
v -0.634393 -0.000000 -0.773012
v -0.595699 -0.000000 -0.803209
v -0.555570 -0.000000 -0.831471
v -0.514102 -0.000000 -0.857730
v -0.471396 -0.000000 -0.881922
v -0.427554 -0.000000 -0.903990
v -0.382682 -0.000000 -0.923881
v -0.336889 -0.000000 -0.941545
v -0.290283 -0.000000 -0.956941
v -0.242979 -0.000000 -0.970032
v -0.195089 -0.000000 -0.980786
v -0.146729 -0.000000 -0.989177
v -0.098015 -0.000000 -0.995185
v -0.049066 -0.000000 -0.998796
vn 0.0151 0.7884 -0.6150
vn 0.0453 0.7884 -0.6135
vn 0.0753 0.7884 -0.6105
vn 0.1052 0.7884 -0.6061
vn 0.1348 0.7884 -0.6002
vn 0.1641 0.7884 -0.5929
vn 0.1930 0.7884 -0.5841
vn 0.2214 0.7884 -0.5739
vn 0.2493 0.7884 -0.5624
vn 0.2766 0.7884 -0.5495
vn 0.3032 0.7884 -0.5352
vn 0.3291 0.7884 -0.5197
vn 0.3542 0.7884 -0.5029
vn 0.3785 0.7884 -0.4849
vn 0.4018 0.7884 -0.4658
vn 0.4242 0.7884 -0.4455
vn 0.4455 0.7884 -0.4242
vn 0.4658 0.7884 -0.4018
vn 0.4849 0.7884 -0.3785
vn 0.5029 0.7884 -0.3542
vn 0.5197 0.7884 -0.3291
vn 0.5352 0.7884 -0.3032
vn 0.5495 0.7884 -0.2766
vn 0.5624 0.7884 -0.2493
vn 0.5739 0.7884 -0.2214
vn 0.5841 0.7884 -0.1930
vn 0.5929 0.7884 -0.1641
vn 0.6002 0.7884 -0.1348
vn 0.6061 0.7884 -0.1052
vn 0.6105 0.7884 -0.0753
vn 0.6135 0.7884 -0.0453
vn 0.6150 0.7884 -0.0151
vn 0.6150 0.7884 0.0151
vn 0.6135 0.7884 0.0453
vn 0.6105 0.7884 0.0753
vn 0.6061 0.7884 0.1052
vn 0.6002 0.7884 0.1348
vn 0.5929 0.7884 0.1641
vn 0.5841 0.7884 0.1930
vn 0.5739 0.7884 0.2214
vn 0.5624 0.7884 0.2493
vn 0.5495 0.7884 0.2766
vn 0.5352 0.7884 0.3032
vn 0.5197 0.7884 0.3291
vn 0.5029 0.7884 0.3542
vn 0.4849 0.7884 0.3785
vn 0.4658 0.7884 0.4018
vn 0.4455 0.7884 0.4242
vn 0.4242 0.7884 0.4455
vn 0.4018 0.7884 0.4658
vn 0.3785 0.7884 0.4849
vn 0.3542 0.7884 0.5029
vn 0.3291 0.7884 0.5197
vn 0.3032 0.7884 0.5352
vn 0.2766 0.7884 0.5495
vn 0.2493 0.7884 0.5624
vn 0.2214 0.7884 0.5739
vn 0.1930 0.7884 0.5841
vn 0.1641 0.7884 0.5929
vn 0.1348 0.7884 0.6002
vn 0.1052 0.7884 0.6061
vn 0.0753 0.7884 0.6105
vn 0.0453 0.7884 0.6135
vn 0.0151 0.7884 0.6150
vn -0.0151 0.7884 0.6150
vn -0.0453 0.7884 0.6135
vn -0.0753 0.7884 0.6105
vn -0.1052 0.7884 0.6061
vn -0.1348 0.7884 0.6002
vn -0.1641 0.7884 0.5929
vn -0.1930 0.7884 0.5841
vn -0.2214 0.7884 0.5739
vn -0.2493 0.7884 0.5624
vn -0.2766 0.7884 0.5495
vn -0.3032 0.7884 0.5352
vn -0.3291 0.7884 0.5197
vn -0.3542 0.7884 0.5029
vn -0.3785 0.7884 0.4850
vn -0.4018 0.7884 0.4658
vn -0.4242 0.7884 0.4455
vn -0.4455 0.7884 0.4242
vn -0.4658 0.7884 0.4018
vn -0.4849 0.7884 0.3785
vn -0.5029 0.7884 0.3542
vn -0.5197 0.7884 0.3291
vn -0.5352 0.7884 0.3032
vn -0.5495 0.7884 0.2766
vn -0.5624 0.7884 0.2493
vn -0.5739 0.7884 0.2214
vn -0.5841 0.7884 0.1930
vn -0.5929 0.7884 0.1641
vn -0.6002 0.7884 0.1348
vn -0.6061 0.7884 0.1052
vn -0.6105 0.7884 0.0753
vn -0.6135 0.7884 0.0453
vn -0.6150 0.7884 0.0151
vn -0.6150 0.7884 -0.0151
vn -0.6135 0.7884 -0.0453
vn -0.6105 0.7884 -0.0753
vn -0.6061 0.7884 -0.1052
vn -0.6002 0.7884 -0.1348
vn -0.5929 0.7884 -0.1641
vn -0.5841 0.7884 -0.1930
vn -0.5739 0.7884 -0.2214
vn -0.5624 0.7884 -0.2493
vn -0.5495 0.7884 -0.2766
vn -0.5352 0.7884 -0.3032
vn -0.5197 0.7884 -0.3291
vn -0.5029 0.7884 -0.3542
vn -0.4849 0.7884 -0.3785
vn -0.4658 0.7884 -0.4018
vn -0.4455 0.7884 -0.4242
vn -0.4242 0.7884 -0.4455
vn -0.4018 0.7884 -0.4658
vn -0.3785 0.7884 -0.4849
vn -0.3542 0.7884 -0.5029
vn -0.3291 0.7884 -0.5197
vn -0.3032 0.7884 -0.5352
vn -0.2766 0.7884 -0.5495
vn -0.2493 0.7884 -0.5624
vn -0.2214 0.7884 -0.5739
vn -0.1930 0.7884 -0.5841
vn -0.1641 0.7884 -0.5929
vn -0.1348 0.7884 -0.6002
vn -0.1052 0.7884 -0.6061
vn -0.0753 0.7884 -0.6105
vn -0.0453 0.7884 -0.6135
vn -0.0151 0.7884 -0.6150
vn 0.0000 -1.0000 -0.0000
usemtl None
s off
f 1//1 90//1 2//1
f 2//2 90//2 3//2
f 3//3 90//3 4//3
f 4//4 90//4 5//4
f 5//5 90//5 6//5
f 6//6 90//6 7//6
f 7//7 90//7 8//7
f 8//8 90//8 9//8
f 9//9 90//9 10//9
f 10//10 90//10 11//10
f 11//11 90//11 12//11
f 12//12 90//12 13//12
f 13//13 90//13 14//13
f 14//14 90//14 15//14
f 15//15 90//15 16//15
f 16//16 90//16 17//16
f 17//17 90//17 18//17
f 18//18 90//18 19//18
f 19//19 90//19 20//19
f 20//20 90//20 21//20
f 21//21 90//21 22//21
f 22//22 90//22 23//22
f 23//23 90//23 24//23
f 24//24 90//24 25//24
f 25//25 90//25 26//25
f 26//26 90//26 27//26
f 27//27 90//27 28//27
f 28//28 90//28 29//28
f 29//29 90//29 30//29
f 30//30 90//30 31//30
f 31//31 90//31 32//31
f 32//32 90//32 33//32
f 33//33 90//33 34//33
f 34//34 90//34 35//34
f 35//35 90//35 36//35
f 36//36 90//36 37//36
f 37//37 90//37 38//37
f 38//38 90//38 39//38
f 39//39 90//39 40//39
f 40//40 90//40 41//40
f 41//41 90//41 42//41
f 42//42 90//42 43//42
f 43//43 90//43 44//43
f 44//44 90//44 45//44
f 45//45 90//45 46//45
f 46//46 90//46 47//46
f 47//47 90//47 48//47
f 48//48 90//48 49//48
f 49//49 90//49 50//49
f 50//50 90//50 51//50
f 51//51 90//51 52//51
f 52//52 90//52 53//52
f 53//53 90//53 54//53
f 54//54 90//54 55//54
f 55//55 90//55 56//55
f 56//56 90//56 57//56
f 57//57 90//57 58//57
f 58//58 90//58 59//58
f 59//59 90//59 60//59
f 60//60 90//60 61//60
f 61//61 90//61 62//61
f 62//62 90//62 63//62
f 63//63 90//63 64//63
f 64//64 90//64 65//64
f 65//65 90//65 66//65
f 66//66 90//66 67//66
f 67//67 90//67 68//67
f 68//68 90//68 69//68
f 69//69 90//69 70//69
f 70//70 90//70 71//70
f 71//71 90//71 72//71
f 72//72 90//72 73//72
f 73//73 90//73 74//73
f 74//74 90//74 75//74
f 75//75 90//75 76//75
f 76//76 90//76 77//76
f 77//77 90//77 78//77
f 78//78 90//78 79//78
f 79//79 90//79 80//79
f 80//80 90//80 81//80
f 81//81 90//81 82//81
f 82//82 90//82 83//82
f 83//83 90//83 84//83
f 84//84 90//84 85//84
f 85//85 90//85 86//85
f 86//86 90//86 87//86
f 87//87 90//87 88//87
f 88//88 90//88 89//88
f 89//89 90//89 91//89
f 91//90 90//90 92//90
f 92//91 90//91 93//91
f 93//92 90//92 94//92
f 94//93 90//93 95//93
f 95//94 90//94 96//94
f 96//95 90//95 97//95
f 97//96 90//96 98//96
f 98//97 90//97 99//97
f 99//98 90//98 100//98
f 100//99 90//99 101//99
f 101//100 90//100 102//100
f 102//101 90//101 103//101
f 103//102 90//102 104//102
f 104//103 90//103 105//103
f 105//104 90//104 106//104
f 106//105 90//105 107//105
f 107//106 90//106 108//106
f 108//107 90//107 109//107
f 109//108 90//108 110//108
f 110//109 90//109 111//109
f 111//110 90//110 112//110
f 112//111 90//111 113//111
f 113//112 90//112 114//112
f 114//113 90//113 115//113
f 115//114 90//114 116//114
f 116//115 90//115 117//115
f 117//116 90//116 118//116
f 118//117 90//117 119//117
f 119//118 90//118 120//118
f 120//119 90//119 121//119
f 121//120 90//120 122//120
f 122//121 90//121 123//121
f 123//122 90//122 124//122
f 124//123 90//123 125//123
f 125//124 90//124 126//124
f 126//125 90//125 127//125
f 127//126 90//126 128//126
f 128//127 90//127 129//127
f 129//128 90//128 1//128
f 1//129 2//129 3//129 4//129 5//129 6//129 7//129 8//129 9//129 10//129 11//129 12//129 13//129 14//129 15//129 16//129 17//129 18//129 19//129 20//129 21//129 22//129 23//129 24//129 25//129 26//129 27//129 28//129 29//129 30//129 31//129 32//129 33//129 34//129 35//129 36//129 37//129 38//129 39//129 40//129 41//129 42//129 43//129 44//129 45//129 46//129 47//129 48//129 49//129 50//129 51//129 52//129 53//129 54//129 55//129 56//129 57//129 58//129 59//129 60//129 61//129 62//129 63//129 64//129 65//129 66//129 67//129 68//129 69//129 70//129 71//129 72//129 73//129 74//129 75//129 76//129 77//129 78//129 79//129 80//129 81//129 82//129 83//129 84//129 85//129 86//129 87//129 88//129 89//129 91//129 92//129 93//129 94//129 95//129 96//129 97//129 98//129 99//129 100//129 101//129 102//129 103//129 104//129 105//129 106//129 107//129 108//129 109//129 110//129 111//129 112//129 113//129 114//129 115//129 116//129 117//129 118//129 119//129 120//129 121//129 122//129 123//129 124//129 125//129 126//129 127//129 128//129 129//129
