# Blender v2.79 (sub 0) OBJ File: ''
# www.blender.org
mtllib Simple Ed Sheeran.mtl
o Cube_Cube.001
v 0.309009 1.541665 0.325614
v -0.329103 1.552155 0.325614
v -0.514417 1.324882 0.411278
v -0.514324 0.812645 0.411278
v 0.485583 1.351106 0.411278
v 0.441876 0.775931 0.411278
v 0.268799 0.634323 0.311627
v -0.360571 0.636071 0.311627
v 0.309009 1.541665 0.325614
v -0.329103 1.552155 0.325614
v 0.309009 1.532924 -0.399911
v -0.329103 1.543414 -0.399911
v 0.455862 1.436770 -0.478582
v -0.489942 1.447260 -0.478582
v 0.447121 0.810896 -0.492568
v -0.510921 0.821386 -0.492568
v 0.309009 0.653554 -0.268792
v -0.329103 0.664043 -0.268792
v -0.207700 0.640878 -0.182356
v 0.124144 0.634630 -0.182356
v -0.226445 0.624216 0.052187
v 0.100193 0.623175 0.052187
v -0.207700 0.387354 -0.188649
v 0.124144 0.381106 -0.188649
v -0.226445 0.370693 0.006033
v 0.100193 0.369651 0.006033
v -0.211481 0.155573 -0.019976
v -0.203089 0.375760 -0.013683
v -0.211481 0.080048 -0.152052
v -0.203089 0.375760 -0.170933
v -0.087797 0.142986 -0.019976
v -0.054231 0.377858 -0.013683
v -0.087797 0.067461 -0.152052
v -0.054231 0.377858 -0.170933
v -0.020222 0.152776 -0.018972
v -0.037005 0.383452 -0.008483
v -0.020222 0.079349 -0.159439
v -0.037005 0.377159 -0.165733
v 0.103462 0.140188 -0.018972
v 0.107657 0.385550 -0.008483
v 0.103462 0.066762 -0.159439
v 0.107657 0.379256 -0.165733
v -0.288717 0.088131 0.116356
v -0.288717 0.037782 -0.015719
v -0.165033 0.075544 0.116356
v -0.165033 0.025194 -0.015719
v 0.014589 0.066858 0.116138
v 0.014589 0.018606 -0.024329
v 0.138272 0.054271 0.116138
v 0.138272 0.006019 -0.024329
v -0.288717 0.018901 0.114351
v -0.165033 0.006313 0.114351
v 0.014589 -0.000275 0.105741
v 0.138272 -0.012862 0.105741
v -0.354921 0.388034 0.002984
v -0.318669 0.650347 0.002984
v -0.354921 0.388034 -0.076469
v -0.318669 0.650347 -0.076469
v -0.243657 0.360846 0.002984
v -0.228552 0.644305 0.002984
v -0.243657 0.360846 -0.076469
v -0.228552 0.644305 -0.076469
v 0.170729 0.495522 0.001527
v 0.115085 0.644419 0.001527
v 0.170729 0.495522 -0.076469
v 0.115085 0.644419 -0.076469
v 0.257466 0.485323 0.001527
v 0.234156 0.639077 0.001527
v 0.257466 0.485323 -0.076469
v 0.234156 0.639077 -0.076469
v 0.161014 0.466793 0.023380
v 0.161014 0.383751 -0.076469
v 0.247751 0.456595 0.023380
v 0.247751 0.373553 -0.076469
v 0.152429 0.511786 0.133637
v 0.152429 0.396693 0.175105
v 0.239166 0.501588 0.133637
v 0.239166 0.386495 0.175105
vn 0.0000 0.0000 1.0000
vn 0.0164 0.9998 -0.0120
vn 0.0084 0.6329 -0.7742
vn 0.0002 0.0223 -0.9998
vn -0.0108 -0.8185 -0.5744
vn -0.1784 -0.9818 -0.0648
vn 0.6917 -0.7222 -0.0052
vn -0.0129 -0.5302 0.8478
vn -0.6986 -0.7147 -0.0341
vn -0.9997 0.0185 -0.0142
vn -0.6817 0.7305 0.0411
vn -0.0036 0.3794 0.9252
vn 0.6629 0.7483 0.0234
vn 0.9989 -0.0434 -0.0166
vn 0.0005 0.0248 -0.9997
vn -0.0167 -0.9701 -0.2423
vn 0.0991 -0.9946 -0.0296
vn -0.0029 -0.9990 0.0445
vn -0.0110 -0.9973 -0.0732
vn -0.9962 0.0089 -0.0863
vn -0.0006 -0.1791 0.9838
vn 0.9938 -0.0114 0.1103
vn -0.9994 0.0323 -0.0084
vn -0.0024 -0.0620 -0.9981
vn 0.9921 -0.1214 0.0317
vn -0.0011 -0.0276 0.9996
vn 0.0887 0.8719 0.4816
vn -0.0141 0.9999 0.0000
vn -0.9978 -0.0635 0.0170
vn -0.0008 -0.0206 -0.9998
vn 0.9999 -0.0151 0.0040
vn -0.0017 -0.0441 0.9990
vn 0.9610 0.2537 -0.1099
vn -0.0145 0.9991 -0.0400
vn -0.1002 -0.9846 -0.1429
vn -0.0951 -0.9343 -0.3435
vn -0.8138 0.5246 -0.2500
vn 0.8138 -0.5246 0.2500
vn 0.0866 0.8506 0.5186
vn -0.0933 -0.9169 -0.3882
vn -0.9610 -0.2537 0.1099
vn -0.0156 -0.1530 0.9881
vn -1.0000 0.0000 -0.0000
vn 1.0000 0.0000 0.0000
vn -0.0029 -0.0290 0.9996
vn -0.9906 0.1369 0.0000
vn 0.0000 0.0000 -1.0000
vn 0.9986 -0.0532 0.0000
vn -0.2374 -0.9714 0.0000
vn 0.0669 0.9978 0.0000
vn -0.9367 -0.3501 0.0000
vn 0.9887 0.1499 0.0000
vn 0.0693 0.5890 0.8051
vn 0.0448 0.9990 0.0000
vn 0.9987 -0.0147 0.0497
vn -0.9900 0.1277 -0.0596
vn 0.9900 -0.1277 0.0596
vn 0.0398 0.3387 0.9401
vn -0.9987 0.0147 -0.0497
vn 0.1086 0.9233 -0.3683
vn -0.1166 -0.9921 0.0471
usemtl None
s off
f 2//1 1//1 9//1 10//1
f 10//2 9//2 11//2 12//2
f 12//3 11//3 13//3 14//3
f 14//4 13//4 15//4 16//4
f 16//5 15//5 17//5 18//5
f 8//6 18//6 19//6 21//6
f 7//7 17//7 15//7 6//7
f 7//8 6//8 4//8 8//8
f 4//9 16//9 18//9 8//9
f 3//10 14//10 16//10 4//10
f 12//11 14//11 3//11 10//11
f 10//12 3//12 5//12 9//12
f 11//13 9//13 5//13 13//13
f 4//1 6//1 5//1 3//1
f 6//14 15//14 13//14 5//14
f 19//15 20//15 24//15 23//15
f 18//16 17//16 20//16 19//16
f 17//17 7//17 22//17 20//17
f 7//18 8//18 21//18 22//18
f 26//19 25//19 23//19 24//19
f 21//20 19//20 23//20 25//20
f 22//21 21//21 25//21 26//21
f 20//22 22//22 26//22 24//22
f 27//23 28//23 30//23 29//23
f 29//24 30//24 34//24 33//24
f 33//25 34//25 32//25 31//25
f 31//26 32//26 28//26 27//26
f 31//27 27//27 43//27 45//27
f 34//28 30//28 28//28 32//28
f 35//29 36//29 38//29 37//29
f 37//30 38//30 42//30 41//30
f 41//31 42//31 40//31 39//31
f 39//32 40//32 36//32 35//32
f 41//33 39//33 49//33 50//33
f 42//34 38//34 36//34 40//34
f 44//35 46//35 52//35 51//35
f 29//36 33//36 46//36 44//36
f 27//37 29//37 44//37 43//37
f 33//38 31//38 45//38 46//38
f 48//35 50//35 54//35 53//35
f 39//39 35//39 47//39 49//39
f 37//40 41//40 50//40 48//40
f 35//41 37//41 48//41 47//41
f 47//42 53//42 54//42 49//42
f 48//43 53//43 47//43
f 50//44 49//44 54//44
f 46//44 45//44 52//44
f 43//45 51//45 52//45 45//45
f 44//43 51//43 43//43
f 55//46 56//46 58//46 57//46
f 57//47 58//47 62//47 61//47
f 61//48 62//48 60//48 59//48
f 59//1 60//1 56//1 55//1
f 57//49 61//49 59//49 55//49
f 62//50 58//50 56//50 60//50
f 63//51 64//51 66//51 65//51
f 65//47 66//47 70//47 69//47
f 69//52 70//52 68//52 67//52
f 67//1 68//1 64//1 63//1
f 67//53 63//53 71//53 73//53
f 70//54 66//54 64//54 68//54
f 74//55 73//55 77//55 78//55
f 65//47 69//47 74//47 72//47
f 63//56 65//56 72//56 71//56
f 69//57 67//57 73//57 74//57
f 76//58 78//58 77//58 75//58
f 71//59 72//59 76//59 75//59
f 73//60 71//60 75//60 77//60
f 72//61 74//61 78//61 76//61
l 3 2
l 1 5
